HIERARCHY
ROOT root
{
	OFFSET	0	13.1	24.9
	CHANNELS 6  Xposition Yposition Zposition Xrotation Yrotation Zrotation
	JOINT spine_1
	{
		OFFSET	0	9.99999	0
		CHANNELS 3  Xrotation Yrotation Zrotation
		JOINT spine_2
		{
			OFFSET	0	112	-10
			CHANNELS 3  Xrotation Yrotation Zrotation
			JOINT spine_3
			{
				OFFSET	0	206.5	19.3
				CHANNELS 3  Xrotation Yrotation Zrotation
				JOINT spine_4
				{
					OFFSET	0	110.4	14.6
					CHANNELS 3  Xrotation Yrotation Zrotation
					JOINT neck_1
					{
						OFFSET	0	71.8	-50.3
						CHANNELS 3  Xrotation Yrotation Zrotation
						JOINT neck_2
						{
							OFFSET	0	86.2	-25.8
							CHANNELS 3  Xrotation Yrotation Zrotation
							JOINT head_ee
							{
								OFFSET	0	179.8	-8.7
								CHANNELS 3  Xrotation Yrotation Zrotation
								End Site
								{
									OFFSET	1	0	0
								}
							}
						}
					}
					JOINT left_clavicle
					{
						OFFSET	-43.2	22.4	-70.8
						CHANNELS 3  Xrotation Yrotation Zrotation
						JOINT left_shoulder
						{
							OFFSET	-93.9	-5.79999	48.7
							CHANNELS 3  Xrotation Yrotation Zrotation
							JOINT left_elbow
							{
								OFFSET	-291.4	-30.8	15.2
								CHANNELS 3  Xrotation Yrotation Zrotation
								JOINT left_lowarm_twist
								{
									OFFSET	-110.7	-3.89999	13.6
									CHANNELS 3  Xrotation Yrotation Zrotation
									JOINT left_hand
									{
										OFFSET	-110.7	-3.89999	13.6
										CHANNELS 3  Xrotation Yrotation Zrotation
										JOINT left_ee
										{
											OFFSET	-80.8	-5.10001	12.1
											CHANNELS 3  Xrotation Yrotation Zrotation
											End Site
											{
												OFFSET	1	0	0
											}
										}
									}
								}
							}
						}
					}
					JOINT right_clavicle
					{
						OFFSET	43.2	22.4	-70.8
						CHANNELS 3  Xrotation Yrotation Zrotation
						JOINT right_shoulder
						{
							OFFSET	93.9	-5.79999	48.7
							CHANNELS 3  Xrotation Yrotation Zrotation
							JOINT right_elbow
							{
								OFFSET	291.4	-30.8	15.2
								CHANNELS 3  Xrotation Yrotation Zrotation
								JOINT right_lowarm_twist
								{
									OFFSET	110.7	-3.89999	13.6
									CHANNELS 3  Xrotation Yrotation Zrotation
									JOINT right_hand
									{
										OFFSET	110.7	-3.89999	13.6
										CHANNELS 3  Xrotation Yrotation Zrotation
										JOINT right_ee
										{
											OFFSET	80.8	-5.10001	12.1
											CHANNELS 3  Xrotation Yrotation Zrotation
											End Site
											{
												OFFSET	1	0	0
											}
										}
									}
								}
							}
						}
					}
				}
			}
		}
	}
	JOINT left_hip
	{
		OFFSET	-82.8	-127.5	0.300001
		CHANNELS 3  Xrotation Yrotation Zrotation
		JOINT left_knee
		{
			OFFSET	-28.2	-396.7	2.2
			CHANNELS 3  Xrotation Yrotation Zrotation
			JOINT left_ankle
			{
				OFFSET	-11.7	-411.3	35.4
				CHANNELS 3  Xrotation Yrotation Zrotation
				JOINT left_toes
				{
					OFFSET	0	-60	-88.6
					CHANNELS 3  Xrotation Yrotation Zrotation
					JOINT left_foot_ee
					{
						OFFSET	-22.5	-16.5	-42.2
						CHANNELS 3  Xrotation Yrotation Zrotation
						End Site
						{
							OFFSET	1	0	0
						}
					}
				}
			}
		}
	}
	JOINT right_hip
	{
		OFFSET	82.8	-127.5	0.300001
		CHANNELS 3  Xrotation Yrotation Zrotation
		JOINT right_knee
		{
			OFFSET	28.2	-396.7	2.2
			CHANNELS 3  Xrotation Yrotation Zrotation
			JOINT right_ankle
			{
				OFFSET	11.7	-411.3	35.4
				CHANNELS 3  Xrotation Yrotation Zrotation
				JOINT right_toes
				{
					OFFSET	0	-60	-88.6
					CHANNELS 3  Xrotation Yrotation Zrotation
					JOINT right_foot_ee
					{
						OFFSET	22.5	-16.5	-42.2
						CHANNELS 3  Xrotation Yrotation Zrotation
						End Site
						{
							OFFSET	1	0	0
						}
					}
				}
			}
		}
	}
}
MOTION
Frames: 12
Frame Time: 0.02
620.058 739.563 -506.19 163.188 -79.2346 160.056 -1.68892 0.368458 3.26328 -1.68301 0.160175 3.28009 -1.66835 -0.627492 3.22355 -1.68283 -0.110804 3.28212 -24.574 7.81086 -4.14573 -25.1084 16.8262 0.133354 -0.0 0.0 -0.0 3.42005 24.5108 7.42123 -10.2176 -5.55761 61.1414 0.936873 -24.8956 0.206809 -78.4363 -7.62315 5.29807 0.111358 7.4517 3.82744 -0.0 0.0 -0.0 13.6541 23.658 -27.457 2.49041 30.4177 -59.8332 1.1315 29.2701 -0.295481 32.4531 0.0159575 4.09072 -2.63936 -13.2179 11.2075 0.0 0.0 0.0 10.7535 14.1076 -4.33509 -18.6191 0.309516 2.82794 34.2976 26.41 -4.62793 -35.444 0.0 0.0 -0.0 0.0 -0.0 2.75958 16.5039 2.11037 -33.0087 0.0828835 -4.99563 26.6913 4.94088 3.59513 11.7233 -0.0 -0.0 0.0 0.0 0.0 
636.115 738.468 -505.623 154.588 -79.3819 151.585 -1.86383 0.490238 3.3556 -1.85761 0.275844 3.37995 -1.83497 -0.548608 3.34656 -1.85059 -0.0135123 3.39115 -24.6834 8.05278 -4.32304 -25.2565 17.3578 0.114518 -0.0 0.0 -0.0 3.50201 25.0701 7.53425 -10.7393 -5.31433 60.7568 0.844422 -22.6995 0.169498 -78.1575 -7.58765 5.30076 0.0652025 8.1534 3.81327 -0.0 0.0 -0.0 13.6071 23.3536 -27.3777 4.17697 31.0838 -60.4155 1.02507 26.9204 -0.24535 33.5101 0.0554085 4.21993 -2.57203 -16.2017 9.22526 0.0 0.0 0.0 12.5699 13.6577 -5.62282 -17.9293 0.314538 2.72222 36.7644 26.488 -4.89283 -34.1219 0.0 0.0 -0.0 0.0 -0.0 0.861509 16.0233 1.94076 -36.6947 0.269987 -5.53 26.3482 5.00665 3.55676 12.5238 -0.0 -0.0 0.0 0.0 0.0 
649.357 735.191 -501.333 150.995 -77.3979 147.814 -2.01766 0.630942 3.39178 -2.01136 0.413966 3.425 -1.97951 -0.433879 3.42254 -1.99584 0.11176 3.44809 -24.8338 7.98194 -4.48748 -25.4025 17.278 -0.0552518 -0.0 0.0 -0.0 2.97258 25.1096 6.82802 -11.7368 -4.97994 60.9863 0.733529 -19.9696 0.129142 -78.0386 -7.57251 5.30185 0.119777 8.35237 4.24789 -0.0 0.0 -0.0 13.4344 23.037 -27.0046 5.84395 31.4251 -60.5938 1.16989 30.0925 -0.314493 33.2893 0.0469692 4.193 -2.54504 -15.3332 9.50831 0.0 0.0 0.0 15.2983 13.0502 -7.30346 -17.9161 0.314621 2.7202 35.5689 26.5799 -4.77001 -34.1937 0.0 0.0 -0.0 0.0 -0.0 -2.47065 16.0141 2.65993 -36.9184 0.282444 -5.56203 26.4887 4.869 3.57111 12.5296 -0.0 -0.0 0.0 0.0 0.0 
657.798 730.805 -500.284 152.206 -76.9735 148.949 -1.85594 0.674247 3.45539 -1.84942 0.453143 3.49123 -1.81465 -0.401918 3.49749 -1.83169 0.155136 3.51706 -25.1805 7.8156 -4.54008 -25.7358 16.9488 -0.147671 -0.0 0.0 -0.0 2.66209 25.1941 6.41718 -12.6765 -4.7904 61.9919 0.706221 -19.282 0.11997 -78.0124 -7.56918 5.30209 0.232505 8.57813 5.06965 -0.0 0.0 -0.0 13.2189 22.0602 -26.5917 8.04358 31.6852 -61.918 1.31325 33.0442 -0.389569 33.2417 0.0451653 4.18719 -2.4888 -14.1679 9.75591 0.0 0.0 0.0 16.2837 12.7364 -8.50247 -18.2631 0.312266 2.77339 33.6829 26.7846 -4.57201 -34.4027 0.0 0.0 -0.0 0.0 -0.0 -3.95652 15.9761 2.83095 -34.409 0.149901 -5.20001 26.7555 4.75683 3.60013 12.5034 -0.0 -0.0 0.0 0.0 0.0 
672.683 727.41 -495.225 155.018 -76.7085 151.747 -1.72976 0.733751 3.47809 -1.72317 0.511085 3.51766 -1.68466 -0.343921 3.53789 -1.70206 0.218777 3.54782 -24.7767 7.16993 -3.09948 -25.2229 15.1331 0.786062 -0.0 0.0 -0.0 2.52586 24.9666 6.22912 -14.2931 -3.84567 61.6416 0.607056 -16.7371 0.0893026 -77.2682 -7.47436 5.30818 0.565432 8.56669 7.22825 -0.0 0.0 -0.0 12.9377 21.4858 -25.9859 8.49954 32.2003 -63.1592 1.72128 40.4497 -0.634196 31.811 -0.00683777 4.01189 -2.63451 -10.3027 12.6901 0.0 0.0 0.0 18.865 12.4601 -9.59318 -21.6945 0.271656 3.29826 31.9376 27.2005 -4.38884 -32.7632 0.0 0.0 -0.0 0.0 -0.0 -5.69551 15.634 2.94294 -32.7025 0.0688993 -4.95074 30.3798 3.62126 3.98537 12.0626 -0.0 -0.0 0.0 0.0 0.0 
688.547 726.363 -492.335 156.64 -75.7889 153.218 -1.83239 0.79719 3.44508 -1.82597 0.576492 3.48875 -1.78353 -0.279461 3.52496 -1.80075 0.280392 3.52488 -24.5757 6.87039 -2.37956 -24.9731 14.2618 1.26929 -0.0 0.0 -0.0 2.38025 24.8065 6.02918 -15.5158 -3.24676 62.2881 0.568021 -15.7157 0.0783943 -76.7614 -7.40974 5.31162 0.762063 8.48921 8.48125 -0.0 0.0 -0.0 12.657 21.0709 -25.3682 8.59309 32.0192 -64.1413 2.17239 47.0942 -0.946796 31.1571 -0.0291434 3.93136 -2.80989 -8.62128 14.7267 0.0 0.0 0.0 20.9048 12.3303 -10.2838 -23.9873 0.227035 3.64723 30.03 27.5648 -4.17841 -31.8991 0.0 0.0 -0.0 0.0 -0.0 -7.77554 17.2436 3.1467 -30.4878 -0.0250727 -4.6239 30.7632 3.01853 4.01908 11.2815 -0.0 -0.0 0.0 0.0 0.0 
697.772 721.889 -493.542 158.838 -75.7766 155.215 -1.83727 0.948865 3.50221 -1.83074 0.724232 3.5554 -1.7779 -0.151456 3.62516 -1.79598 0.422591 3.60366 -22.1317 6.2901 -1.5979 -22.4106 12.8869 1.41625 -0.0 0.0 -0.0 2.20772 24.4457 5.78331 -16.5981 -3.0253 62.599 0.568903 -15.7389 0.0786334 -78.5172 -7.63343 5.29725 1.16323 13.1142 12.8105 -0.0 0.0 -0.0 12.5169 22.0633 -24.9619 7.17014 31.853 -62.7914 2.49049 50.9651 -1.18712 28.1841 -0.118899 3.56226 -2.46047 -1.89658 15.7481 0.0 0.0 0.0 21.6248 8.27539 -9.60853 -25.4089 0.192364 3.86264 27.7818 26.8361 -3.89051 -32.1499 0.0 0.0 -0.0 0.0 -0.0 -9.93577 17.7309 3.67441 -26.0598 -0.174708 -3.96097 33.0696 2.37997 4.25012 10.3272 -0.0 -0.0 0.0 0.0 0.0 
710.219 717.596 -493.114 158.601 -75.0516 155.206 -1.82296 0.982888 3.47044 -1.81658 0.760205 3.52586 -1.76198 -0.108359 3.60516 -1.77982 0.461996 3.57711 -22.6251 6.65626 -2.37675 -22.9574 13.9382 0.929704 -0.0 0.0 -0.0 2.28955 24.2814 5.88686 -16.9468 -2.6747 62.8894 0.470411 -13.1176 0.054086 -77.6101 -7.51794 5.30554 0.95538 11.1009 10.7308 -0.0 0.0 -0.0 12.4864 20.9553 -24.9829 7.66034 31.891 -63.071 2.86061 54.7794 -1.48237 29.9544 -0.0677619 3.78259 -2.94928 -5.67674 17.2102 0.0 0.0 0.0 23.7452 11.5497 -11.3456 -24.851 0.206608 3.77821 24.3508 29.1795 -3.52099 -31.4293 0.0 0.0 -0.0 0.0 -0.0 -11.1975 18.8028 3.77256 -25.4316 -0.191768 -3.86606 33.7306 2.50194 4.31761 8.46499 -0.0 -0.0 0.0 0.0 0.0 
722.109 714.633 -491.329 159.403 -74.6934 155.732 -1.87379 1.0587 3.73554 -1.86641 0.819027 3.79522 -1.80299 -0.118629 3.88065 -1.82366 0.495273 3.85079 -22.7435 6.16094 -1.05676 -23.0143 12.3726 1.92252 -0.0 0.0 -0.0 2.02296 24.284 5.52681 -17.3277 -2.49605 63.0717 0.446199 -12.4641 0.0487256 -76.1739 -7.33477 5.31488 1.27185 9.90807 12.3585 -0.0 0.0 -0.0 12.1793 20.8313 -24.2845 9.2318 31.6269 -64.777 3.01948 56.2235 -1.61332 29.9436 -0.0680943 3.78126 -2.84143 -4.69696 16.9747 0.0 0.0 0.0 25.2835 11.2084 -11.7397 -25.1764 0.198401 3.82746 25.0106 27.9183 -3.57411 -31.0917 0.0 0.0 -0.0 0.0 -0.0 -11.232 17.7807 3.91947 -25.4937 -0.190127 -3.87546 33.9103 1.64619 4.32668 10.2825 -0.0 -0.0 0.0 0.0 0.0 
731.033 713.348 -491.511 160.827 -74.7418 157.486 -1.86178 1.1567 3.90583 -1.85375 0.906017 3.97138 -1.78085 -0.0748546 4.07257 -1.80354 0.568738 4.03342 -24.462 5.42423 -1.81879 -24.7051 11.2413 1.02673 -0.0 0.0 -0.0 1.8906 24.1161 5.33932 -17.6492 -2.38237 63.1608 0.484733 -13.5026 0.0573831 -76.4531 -7.37041 5.31343 1.34238 13.7487 14.1933 -0.0 0.0 -0.0 12.3139 23.1455 -24.3963 8.29577 31.3013 -63.2201 3.23146 57.994 -1.79133 29.9757 -0.0671049 3.78524 -2.98662 -3.87472 18.4053 0.0 0.0 0.0 26.3461 11.4494 -11.9043 -20.446 0.290069 3.10757 16.5262 27.5873 -2.44046 -30.3267 0.0 0.0 -0.0 0.0 -0.0 -11.8522 17.1654 3.06158 -19.2364 -0.303942 -2.9225 37.4759 -4.4945 4.63293 4.87545 -0.0 -0.0 0.0 0.0 0.0 
739.303 709.81 -491.313 163.368 -75.4488 160.559 -1.63317 1.06776 3.90425 -1.62506 0.817363 3.96415 -1.55919 -0.143721 4.04486 -1.58167 0.496367 4.0169 -21.0706 4.57104 -2.34435 -21.2131 9.96393 -0.168971 -0.0 0.0 -0.0 1.89634 24.3014 5.3568 -17.6459 -2.37182 63.2773 0.509953 -14.1774 0.0634163 -77.0526 -7.44688 5.30971 1.12989 19.2936 14.7183 -0.0 0.0 -0.0 13.1541 24.3158 -26.2221 7.29891 30.1886 -61.2584 3.48983 59.9381 -2.01276 28.6388 -0.106416 3.61899 -2.67444 1.08548 18.7028 0.0 0.0 0.0 27.1596 12.0636 -11.7758 -8.04239 0.246634 1.20861 -1.66203 28.6647 0.260133 -31.045 0.0 0.0 -0.0 0.0 -0.0 -12.1135 16.9449 2.26073 -16.7774 -0.320086 -2.54558 39.3213 -6.1713 4.79948 -2.57197 0.0 0.0 0.0 0.0 0.0 
751.142 705.755 -491.999 168.471 -75.962 166.369 -1.44478 1.15849 3.815 -1.43715 0.913573 3.88085 -1.36658 -0.0168558 3.98674 -1.38823 0.61249 3.93952 -21.4464 4.49744 -3.16847 -21.5893 10.2056 -0.935276 -0.0 0.0 -0.0 1.63255 24.6538 5.02218 -17.6884 -2.38155 63.0078 0.531827 -14.7595 0.0688815 -75.8065 -7.28788 5.31652 1.76516 17.2528 18.0898 -0.0 0.0 -0.0 13.3762 25.2142 -26.64 8.14267 28.7819 -60.393 3.60424 60.7319 -2.11218 28.601 -0.107471 3.61428 -2.95985 -1.42261 19.4746 0.0 0.0 0.0 28.762 11.8068 -12.5384 -6.64362 0.215975 0.996157 -1.64289 26.8444 0.254285 -31.3001 0.0 0.0 -0.0 0.0 -0.0 -11.2731 16.5358 1.37217 -15.6507 -0.322076 -2.37272 39.7015 -9.7097 4.84811 -2.07 0.0 0.0 0.0 0.0 0.0 
